<?xml version="1.0" ?><svg viewBox="0 0 512 512" xmlns="http://www.w3.org/2000/svg" fill="#ffffff"><defs><style>.cls-1{fill:#ffffff;stroke:#ffffff;stroke-miterlimit:10;stroke-width:10px;}</style></defs><title/><g data-name="StPatrick's-Glyph" id="StPatrick_s-Glyph"><g id="crown"><path d="M440.7217,283.4326a34.92,34.92,0,0,0-33.4453,0c-5.418,3.1279-11.876,9.3047-11.876,20.9678V341.084c0,37.1686-54.8008,36.4852-54.8008.5156V304.4c0-11.6631-6.459-17.84-11.8779-20.9678-9.8447-5.6865-23.5987-5.6855-33.4453,0-5.418,3.1279-11.876,9.3047-11.876,20.9678V341.084c0,37.0724-54.8008,36.564-54.8008.5156V304.4c0-17.3223-14.8252-25.2109-28.6-25.2109s-28.6,7.8886-28.6,25.2109V341.083c0,37.0724-54.8008,36.565-54.8008.5166V304.4c0-17.3223-14.8252-25.2109-28.6-25.2109S59.4,287.0781,59.4,304.4v117H452.6v-117C452.6,292.7373,446.1406,286.5605,440.7217,283.4326ZM86.2393,402.4c-8.8367,0-16-10.7452-16-24s7.1633-24,16-24,16,10.7451,16,24S95.0757,402.4,86.2393,402.4ZM200,402.4c-8.8364,0-16-10.7452-16-24s7.1636-24,16-24,16,10.7451,16,24S208.8364,402.4,200,402.4Zm112,0c-8.8364,0-16-10.7452-16-24s7.1636-24,16-24,16,10.7451,16,24S320.8364,402.4,312,402.4Zm112,0c-8.8364,0-16-10.7452-16-24s7.1636-24,16-24,16,10.7451,16,24S432.8364,402.4,424,402.4Z"/><path d="M457.6,431.4H54.4c-22.62,0-23.5442,34.8.5156,34.8H457.084C481.0782,466.2,480.2855,431.4,457.6,431.4Z"/><path d="M210.064,118.0661c-6.5611,20.1771,22.0547,40.9733,37.936,10.2657V149.69c-26.5688,3.6726-39.9033,25.4814-39.9956,44.51h95.9912c-.0923-19.0286-13.4268-40.8374-39.9956-44.51V128.3211c15.8811,30.7222,44.5059,9.9356,37.9407-10.2549,25.218-5.3543,25.2683-56.1493-37.875-31.178,53.1921-42.1946,9.1924-67.5626-8.0633-48.39-17.2461-19.1623-61.2609,6.1915-8.0634,48.39C184.8013,61.92,184.8315,112.7087,210.064,118.0661Z"/><path d="M81.8,259.2v10.42c24.1984-3.3121,44.8,11.8078,44.8,34.78V341.6c0,22.6928,34.8008,23.4739,34.8008-.5166V304.4c0-46.9054,77.1992-46.771,77.1992,0V341.6c0,22.5456,34.8008,23.5973,34.8008-.5156V304.4c0-46.8906,77.1992-46.9,77.1992,0V341.6c0,22.64,34.8008,23.5117,34.8008-.5156V304.4c0-29.0069,27.8536-37.1238,44.8-34.8231V259.2a55.0622,55.0622,0,0,0-55-55H136.8A55.0622,55.0622,0,0,0,81.8,259.2Z"/><line class="cls-1" x1="54.4" x2="455.3883" y1="426.4" y2="426.4"/></g></g></svg>